<?xml version="1.0" encoding="UTF-8"?>
<svg xmlns="http://www.w3.org/2000/svg" xmlns:xlink="http://www.w3.org/1999/xlink" width="24px" height="24px" viewBox="0 0 24 24" version="1.1">
<g id="surface1">
<path style=" stroke:none;fill-rule:nonzero;fill:rgb(0%,0%,0%);fill-opacity:1;" d="M 18 15.75 L 19.5 15.75 L 19.5 19.5 L 18 19.5 Z M 18 15.75 "/>
<path style=" stroke:none;fill-rule:nonzero;fill:rgb(0%,0%,0%);fill-opacity:1;" d="M 15 12 L 16.5 12 L 16.5 19.5 L 15 19.5 Z M 15 12 "/>
<path style=" stroke:none;fill-rule:nonzero;fill:rgb(0%,0%,0%);fill-opacity:1;" d="M 8.25 19.5 C 6.179688 19.496094 4.503906 17.820312 4.5 15.75 L 6 15.75 C 6 16.992188 7.007812 18 8.25 18 C 9.492188 18 10.5 16.992188 10.5 15.75 C 10.5 14.507812 9.492188 13.5 8.25 13.5 L 8.25 12 C 10.320312 12 12 13.679688 12 15.75 C 12 17.820312 10.320312 19.5 8.25 19.5 Z M 8.25 19.5 "/>
<path style=" stroke:none;fill-rule:nonzero;fill:rgb(0%,0%,0%);fill-opacity:1;" d="M 21 1.5 L 3 1.5 C 2.171875 1.5 1.5 2.171875 1.5 3 L 1.5 21 C 1.5 21.828125 2.171875 22.5 3 22.5 L 21 22.5 C 21.828125 22.5 22.5 21.828125 22.5 21 L 22.5 3 C 22.5 2.171875 21.828125 1.5 21 1.5 Z M 21 8.25 L 10.5 8.25 L 10.5 3 L 21 3 Z M 9 3 L 9 8.25 L 3 8.25 L 3 3 Z M 3 21 L 3 9.75 L 21 9.75 L 21 21 Z M 3 21 "/>
</g>
</svg>
