<?xml version="1.0" encoding="UTF-8"?>
<svg xmlns="http://www.w3.org/2000/svg" xmlns:xlink="http://www.w3.org/1999/xlink" width="24px" height="24px" viewBox="0 0 24 24" version="1.1">
<g id="surface1">
<path style=" stroke:none;fill-rule:nonzero;fill:rgb(0%,0%,0%);fill-opacity:1;" d="M 23.601562 23.199219 L 23.601562 21.199219 L 20.398438 21.199219 L 20.398438 23.199219 L 19.601562 23.199219 L 19.601562 16.800781 L 16.398438 16.800781 L 16.398438 23.199219 L 15.601562 23.199219 L 15.601562 15.199219 L 12.398438 15.199219 L 12.398438 23.199219 L 11.601562 23.199219 L 11.601562 12 L 8.398438 12 L 8.398438 23.199219 L 7.601562 23.199219 L 7.601562 20.398438 L 4.398438 20.398438 L 4.398438 23.199219 L 3.601562 23.199219 L 3.601562 18.398438 L 0.398438 18.398438 L 0.398438 23.199219 C 0.179688 23.199219 0 23.378906 0 23.601562 C 0 23.820312 0.179688 24 0.398438 24 L 23.601562 24 C 23.820312 24 24 23.820312 24 23.601562 C 24 23.378906 23.820312 23.199219 23.601562 23.199219 Z M 23.601562 23.199219 "/>
<path style=" stroke:none;fill-rule:nonzero;fill:rgb(0%,0%,0%);fill-opacity:1;" d="M 0.398438 0.800781 L 23.601562 0.800781 C 23.820312 0.800781 24 0.621094 24 0.398438 C 24 0.179688 23.820312 0 23.601562 0 L 0.398438 0 C 0.179688 0 0 0.179688 0 0.398438 C 0 0.621094 0.179688 0.800781 0.398438 0.800781 Z M 0.398438 0.800781 "/>
<path style=" stroke:none;fill-rule:nonzero;fill:rgb(0%,0%,0%);fill-opacity:1;" d="M 21.199219 4.800781 C 21.199219 4.578125 21.019531 4.398438 20.800781 4.398438 L 17.601562 4.398438 C 17.378906 4.398438 17.199219 4.578125 17.199219 4.800781 C 17.199219 5.019531 17.378906 5.199219 17.601562 5.199219 L 20.800781 5.199219 C 21.019531 5.199219 21.199219 5.019531 21.199219 4.800781 Z M 21.199219 4.800781 "/>
<path style=" stroke:none;fill-rule:nonzero;fill:rgb(0%,0%,0%);fill-opacity:1;" d="M 22.515625 4.515625 C 22.445312 4.589844 22.398438 4.691406 22.398438 4.800781 C 22.398438 4.90625 22.445312 5.007812 22.515625 5.085938 C 22.59375 5.15625 22.695312 5.199219 22.800781 5.199219 C 22.902344 5.199219 23.007812 5.15625 23.085938 5.085938 C 23.15625 5.007812 23.199219 4.902344 23.199219 4.800781 C 23.199219 4.691406 23.15625 4.589844 23.085938 4.515625 C 22.933594 4.367188 22.664062 4.367188 22.515625 4.515625 Z M 22.515625 4.515625 "/>
<path style=" stroke:none;fill-rule:nonzero;fill:rgb(0%,0%,0%);fill-opacity:1;" d="M 22.800781 2.398438 L 21.601562 2.398438 C 21.378906 2.398438 21.199219 2.578125 21.199219 2.800781 C 21.199219 3.019531 21.378906 3.199219 21.601562 3.199219 L 22.800781 3.199219 C 23.019531 3.199219 23.199219 3.019531 23.199219 2.800781 C 23.199219 2.578125 23.019531 2.398438 22.800781 2.398438 Z M 22.800781 2.398438 "/>
<path style=" stroke:none;fill-rule:nonzero;fill:rgb(0%,0%,0%);fill-opacity:1;" d="M 17.601562 3.199219 L 18.398438 3.199219 C 18.621094 3.199219 18.800781 3.019531 18.800781 2.800781 C 18.800781 2.578125 18.621094 2.398438 18.398438 2.398438 L 17.601562 2.398438 C 17.378906 2.398438 17.199219 2.578125 17.199219 2.800781 C 17.199219 3.019531 17.378906 3.199219 17.601562 3.199219 Z M 17.601562 3.199219 "/>
<path style=" stroke:none;fill-rule:nonzero;fill:rgb(0%,0%,0%);fill-opacity:1;" d="M 20.285156 3.085938 C 20.355469 3.007812 20.398438 2.902344 20.398438 2.800781 C 20.398438 2.695312 20.355469 2.589844 20.285156 2.515625 C 20.136719 2.367188 19.867188 2.367188 19.714844 2.515625 C 19.644531 2.589844 19.601562 2.691406 19.601562 2.800781 C 19.601562 2.902344 19.644531 3.007812 19.714844 3.085938 C 19.792969 3.15625 19.894531 3.199219 20 3.199219 C 20.109375 3.199219 20.207031 3.15625 20.285156 3.085938 Z M 20.285156 3.085938 "/>
<path style=" stroke:none;fill-rule:nonzero;fill:rgb(0%,0%,0%);fill-opacity:1;" d="M 0.398438 14 L 3.601562 14 L 3.601562 17.601562 L 0.398438 17.601562 Z M 0.398438 14 "/>
<path style=" stroke:none;fill-rule:nonzero;fill:rgb(0%,0%,0%);fill-opacity:1;" d="M 4.398438 16 L 7.601562 16 L 7.601562 19.601562 L 4.398438 19.601562 Z M 4.398438 16 "/>
<path style=" stroke:none;fill-rule:nonzero;fill:rgb(0%,0%,0%);fill-opacity:1;" d="M 8.398438 7.601562 L 11.601562 7.601562 L 11.601562 11.199219 L 8.398438 11.199219 Z M 8.398438 7.601562 "/>
<path style=" stroke:none;fill-rule:nonzero;fill:rgb(0%,0%,0%);fill-opacity:1;" d="M 12.398438 10.800781 L 15.601562 10.800781 L 15.601562 14.398438 L 12.398438 14.398438 Z M 12.398438 10.800781 "/>
<path style=" stroke:none;fill-rule:nonzero;fill:rgb(0%,0%,0%);fill-opacity:1;" d="M 16.398438 9.199219 L 19.601562 9.199219 L 19.601562 16 L 16.398438 16 Z M 16.398438 9.199219 "/>
<path style=" stroke:none;fill-rule:nonzero;fill:rgb(0%,0%,0%);fill-opacity:1;" d="M 20.398438 17.601562 L 23.601562 17.601562 L 23.601562 20.398438 L 20.398438 20.398438 Z M 20.398438 17.601562 "/>
</g>
</svg>
