<?xml version="1.0" encoding="UTF-8"?>
<svg xmlns="http://www.w3.org/2000/svg" xmlns:xlink="http://www.w3.org/1999/xlink" width="24px" height="24px" viewBox="0 0 24 24" version="1.1">
<g id="surface1">
<path style=" stroke:none;fill-rule:nonzero;fill:rgb(0%,0%,0%);fill-opacity:1;" d="M 19.914062 0 L 4.085938 0 C 3.027344 0 2.171875 0.859375 2.171875 1.914062 L 2.171875 22.085938 C 2.171875 23.140625 3.027344 24 4.085938 24 L 19.914062 24 C 20.972656 24 21.828125 23.140625 21.828125 22.085938 L 21.828125 1.914062 C 21.828125 0.859375 20.972656 0 19.914062 0 Z M 8.808594 0.765625 L 15.191406 0.765625 L 15.191406 1.53125 L 8.808594 1.53125 Z M 8.808594 2.296875 L 15.191406 2.296875 L 15.191406 3.191406 C 15.191406 3.402344 15.019531 3.574219 14.808594 3.574219 L 9.191406 3.574219 C 8.980469 3.574219 8.808594 3.402344 8.808594 3.191406 Z M 21.0625 22.085938 C 21.0625 22.71875 20.546875 23.234375 19.914062 23.234375 L 4.085938 23.234375 C 3.453125 23.234375 2.9375 22.71875 2.9375 22.085938 L 2.9375 1.914062 C 2.9375 1.28125 3.453125 0.765625 4.085938 0.765625 L 8.042969 0.765625 L 8.042969 3.191406 C 8.042969 3.824219 8.558594 4.339844 9.191406 4.339844 L 14.808594 4.339844 C 15.441406 4.339844 15.957031 3.824219 15.957031 3.191406 L 15.957031 0.765625 L 19.914062 0.765625 C 20.546875 0.765625 21.0625 1.28125 21.0625 1.914062 Z M 21.0625 22.085938 "/>
<path style=" stroke:none;fill-rule:nonzero;fill:rgb(0%,0%,0%);fill-opacity:1;" d="M 19.914062 1.53125 L 17.105469 1.53125 C 16.894531 1.53125 16.722656 1.703125 16.722656 1.914062 C 16.722656 2.125 16.894531 2.296875 17.105469 2.296875 L 19.53125 2.296875 L 19.53125 21.703125 L 4.46875 21.703125 L 4.46875 2.296875 L 6.894531 2.296875 C 7.105469 2.296875 7.277344 2.125 7.277344 1.914062 C 7.277344 1.703125 7.105469 1.53125 6.894531 1.53125 L 4.085938 1.53125 C 3.875 1.53125 3.703125 1.703125 3.703125 1.914062 L 3.703125 22.085938 C 3.703125 22.296875 3.875 22.46875 4.085938 22.46875 L 19.914062 22.46875 C 20.125 22.46875 20.296875 22.296875 20.296875 22.085938 L 20.296875 1.914062 C 20.296875 1.703125 20.125 1.53125 19.914062 1.53125 Z M 19.914062 1.53125 "/>
<path style=" stroke:none;fill-rule:nonzero;fill:rgb(0%,0%,0%);fill-opacity:1;" d="M 8.679688 16.851562 L 7.148438 16.851562 C 6.9375 16.851562 6.765625 17.023438 6.765625 17.234375 C 6.765625 17.445312 6.9375 17.617188 7.148438 17.617188 L 8.679688 17.617188 C 8.890625 17.617188 9.0625 17.445312 9.0625 17.234375 C 9.0625 17.023438 8.890625 16.851562 8.679688 16.851562 Z M 8.679688 16.851562 "/>
<path style=" stroke:none;fill-rule:nonzero;fill:rgb(0%,0%,0%);fill-opacity:1;" d="M 16.851562 16.851562 L 10.210938 16.851562 C 10 16.851562 9.828125 17.023438 9.828125 17.234375 C 9.828125 17.445312 10 17.617188 10.210938 17.617188 L 16.851562 17.617188 C 17.0625 17.617188 17.234375 17.445312 17.234375 17.234375 C 17.234375 17.023438 17.0625 16.851562 16.851562 16.851562 Z M 16.851562 16.851562 "/>
<path style=" stroke:none;fill-rule:nonzero;fill:rgb(0%,0%,0%);fill-opacity:1;" d="M 16.851562 18.382812 L 7.148438 18.382812 C 6.9375 18.382812 6.765625 18.554688 6.765625 18.765625 C 6.765625 18.976562 6.9375 19.148438 7.148438 19.148438 L 16.851562 19.148438 C 17.0625 19.148438 17.234375 18.976562 17.234375 18.765625 C 17.234375 18.554688 17.0625 18.382812 16.851562 18.382812 Z M 16.851562 18.382812 "/>
<path style=" stroke:none;fill-rule:nonzero;fill:rgb(0%,0%,0%);fill-opacity:1;" d="M 12 19.914062 L 7.148438 19.914062 C 6.9375 19.914062 6.765625 20.085938 6.765625 20.296875 C 6.765625 20.507812 6.9375 20.679688 7.148438 20.679688 L 12 20.679688 C 12.210938 20.679688 12.382812 20.507812 12.382812 20.296875 C 12.382812 20.085938 12.210938 19.914062 12 19.914062 Z M 12 19.914062 "/>
<path style=" stroke:none;fill-rule:nonzero;fill:rgb(0%,0%,0%);fill-opacity:1;" d="M 15.730469 6.929688 C 15.722656 6.917969 15.710938 6.90625 15.699219 6.894531 C 15.691406 6.882812 15.679688 6.875 15.667969 6.863281 C 14.722656 5.9375 13.425781 5.363281 12 5.363281 C 9.113281 5.363281 6.765625 7.710938 6.765625 10.597656 C 6.765625 13.480469 9.113281 15.828125 12 15.828125 C 13.425781 15.828125 14.722656 15.257812 15.667969 14.328125 C 15.679688 14.316406 15.691406 14.308594 15.699219 14.296875 C 15.710938 14.285156 15.722656 14.273438 15.730469 14.261719 C 16.660156 13.316406 17.234375 12.023438 17.234375 10.597656 C 17.234375 9.167969 16.660156 7.875 15.730469 6.929688 Z M 16.453125 10.210938 L 12.925781 10.210938 L 15.417969 7.71875 C 15.996094 8.40625 16.371094 9.269531 16.453125 10.210938 Z M 12.382812 6.144531 C 13.328125 6.226562 14.1875 6.601562 14.875 7.179688 L 12.382812 9.671875 Z M 11.617188 6.144531 L 11.617188 10.210938 L 7.546875 10.210938 C 7.734375 8.054688 9.457031 6.328125 11.617188 6.144531 Z M 12 15.0625 C 9.664062 15.0625 7.742188 13.265625 7.546875 10.980469 L 11.839844 10.980469 L 14.875 14.011719 C 14.097656 14.667969 13.09375 15.0625 12 15.0625 Z M 15.417969 13.472656 L 12.925781 10.980469 L 16.453125 10.980469 C 16.371094 11.921875 15.996094 12.785156 15.417969 13.472656 Z M 15.417969 13.472656 "/>
</g>
</svg>
