<?xml version="1.0" encoding="UTF-8"?>
<svg xmlns="http://www.w3.org/2000/svg" xmlns:xlink="http://www.w3.org/1999/xlink" width="24px" height="24px" viewBox="0 0 24 23" version="1.1">
<g id="surface1">
<path style=" stroke:none;fill-rule:nonzero;fill:rgb(0%,0%,0%);fill-opacity:1;" d="M 9.574219 0.222656 C 7.195312 0.746094 5.230469 1.792969 3.539062 3.414062 C 0.476562 6.355469 -0.65625 10.546875 0.492188 14.582031 C 1.328125 17.519531 3.378906 20.0625 6.082031 21.570312 C 8.539062 22.9375 11.902344 23.398438 14.589844 22.730469 C 20.113281 21.394531 23.835938 16.949219 23.820312 11.675781 C 23.804688 9.707031 23.476562 8.308594 22.539062 6.433594 C 21.113281 3.558594 18.785156 1.574219 15.65625 0.539062 C 14.050781 0.015625 11.195312 -0.128906 9.574219 0.222656 Z M 15.015625 2.460938 C 19.097656 3.78125 21.804688 7.402344 21.804688 11.515625 C 21.804688 15.996094 18.492188 19.964844 13.984375 20.886719 C 10.867188 21.539062 7.65625 20.664062 5.296875 18.535156 C 3.148438 16.597656 2.132812 14.390625 2.132812 11.707031 C 2.132812 8.894531 3.050781 6.6875 5.050781 4.765625 C 7.785156 2.128906 11.394531 1.285156 15.015625 2.460938 Z M 15.015625 2.460938 "/>
<path style=" stroke:none;fill-rule:nonzero;fill:rgb(0%,0%,0%);fill-opacity:1;" d="M 9.34375 3.542969 C 8.246094 3.90625 7.097656 4.496094 6.394531 5.066406 L 5.984375 5.382812 L 6.589844 5.878906 C 7.132812 6.304688 7.179688 6.417969 7.03125 6.703125 C 6.851562 7.019531 6.820312 7.003906 6.246094 6.355469 L 5.640625 5.671875 L 5.03125 6.464844 C 4.296875 7.449219 3.703125 8.6875 3.460938 9.816406 C 3.179688 11.117188 3.179688 11.117188 4.097656 11.117188 C 4.804688 11.117188 4.917969 11.167969 4.917969 11.4375 C 4.917969 11.707031 4.804688 11.753906 4.097656 11.753906 C 3.359375 11.753906 3.277344 11.785156 3.277344 12.105469 C 3.296875 13.34375 4.214844 15.613281 5.148438 16.757812 L 5.558594 17.234375 L 6.195312 16.628906 C 6.753906 16.089844 6.851562 16.058594 7.050781 16.28125 C 7.230469 16.488281 7.164062 16.597656 6.640625 17.042969 C 6.296875 17.34375 6.066406 17.648438 6.113281 17.742188 C 6.589844 18.488281 9.804688 19.855469 11.066406 19.855469 L 11.640625 19.855469 L 11.640625 19.0625 C 11.640625 18.378906 11.6875 18.265625 11.96875 18.265625 C 12.246094 18.265625 12.296875 18.378906 12.296875 19.078125 L 12.296875 19.902344 L 13.164062 19.808594 C 13.621094 19.757812 14.441406 19.570312 14.949219 19.378906 C 15.886719 19.042969 17.867188 17.871094 17.851562 17.664062 C 17.851562 17.597656 17.558594 17.328125 17.214844 17.058594 C 16.589844 16.582031 16.574219 16.550781 16.867188 16.296875 C 17.164062 16.042969 17.195312 16.058594 17.753906 16.679688 L 18.3125 17.328125 L 19.066406 16.25 C 19.886719 15.074219 20.425781 13.675781 20.523438 12.546875 L 20.574219 11.832031 L 19.804688 11.785156 C 19.246094 11.753906 19.015625 11.675781 19.015625 11.5 C 19.015625 11.339844 19.214844 11.277344 19.738281 11.277344 C 20.148438 11.277344 20.507812 11.214844 20.574219 11.132812 C 20.738281 10.847656 20.195312 8.800781 19.703125 7.847656 C 19.425781 7.324219 19 6.640625 18.722656 6.304688 L 18.230469 5.71875 L 17.722656 6.289062 C 17.410156 6.640625 17.097656 6.832031 16.96875 6.765625 C 16.574219 6.625 16.671875 6.402344 17.3125 5.925781 L 17.917969 5.496094 L 17.230469 4.90625 C 16.394531 4.175781 14.359375 3.335938 13.179688 3.222656 L 12.296875 3.128906 L 12.296875 3.957031 C 12.296875 4.652344 12.246094 4.765625 11.96875 4.765625 C 11.6875 4.765625 11.640625 4.652344 11.640625 3.972656 L 11.640625 3.175781 L 11.03125 3.175781 C 10.6875 3.175781 9.933594 3.351562 9.34375 3.542969 Z M 16.753906 8.054688 C 17.410156 8.625 17.164062 9.023438 14.835938 11.277344 L 12.621094 13.421875 L 11.933594 12.738281 L 11.230469 12.070312 L 13.460938 9.925781 C 15.769531 7.6875 16.113281 7.496094 16.753906 8.054688 Z M 9.984375 11.992188 L 12.050781 13.960938 L 11.394531 14.613281 C 11.050781 14.960938 10.671875 15.25 10.574219 15.25 C 10.492188 15.25 9.539062 14.359375 8.492188 13.277344 C 7.066406 11.832031 6.558594 11.199219 6.558594 10.894531 C 6.558594 10.46875 7.097656 10.007812 7.605469 10.007812 C 7.804688 10.007812 8.769531 10.816406 9.984375 11.992188 Z M 9.984375 11.992188 "/>
</g>
</svg>
