<?xml version="1.0" encoding="UTF-8"?>
<svg xmlns="http://www.w3.org/2000/svg" xmlns:xlink="http://www.w3.org/1999/xlink" width="24px" height="24px" viewBox="0 0 24 24" version="1.1">
<g id="surface1">
<path style=" stroke:none;fill-rule:nonzero;fill:rgb(20%,20%,20%);fill-opacity:1;" d="M 13.5 20 C 13.5 20.828125 12.828125 21.5 12 21.5 C 11.171875 21.5 10.5 20.828125 10.5 20 C 10.5 19.171875 11.171875 18.5 12 18.5 C 12.828125 18.5 13.5 19.171875 13.5 20 Z M 13.5 20 "/>
<path style=" stroke:none;fill-rule:evenodd;fill:rgb(20%,20%,20%);fill-opacity:1;" d="M 15.308594 18.550781 C 15.09375 17.75 15.570312 16.929688 16.371094 16.714844 L 17.335938 16.457031 C 18.136719 16.242188 18.957031 16.714844 19.171875 17.515625 L 19.691406 19.449219 C 19.90625 20.25 19.429688 21.070312 18.628906 21.285156 L 17.664062 21.542969 C 16.863281 21.757812 16.042969 21.285156 15.828125 20.484375 Z M 16.628906 17.679688 C 16.363281 17.753906 16.203125 18.027344 16.273438 18.292969 L 16.792969 20.226562 C 16.863281 20.492188 17.136719 20.648438 17.40625 20.578125 L 18.371094 20.320312 C 18.636719 20.25 18.796875 19.972656 18.726562 19.707031 L 18.207031 17.777344 C 18.136719 17.507812 17.863281 17.351562 17.59375 17.421875 Z M 16.628906 17.679688 "/>
<path style=" stroke:none;fill-rule:evenodd;fill:rgb(20%,20%,20%);fill-opacity:1;" d="M 4.828125 17.515625 C 5.042969 16.714844 5.863281 16.242188 6.664062 16.457031 L 7.628906 16.714844 C 8.429688 16.929688 8.90625 17.75 8.691406 18.550781 L 8.171875 20.484375 C 7.957031 21.285156 7.136719 21.757812 6.335938 21.542969 L 5.371094 21.285156 C 4.570312 21.070312 4.09375 20.25 4.308594 19.449219 Z M 6.40625 17.421875 C 6.136719 17.351562 5.863281 17.507812 5.792969 17.773438 L 5.273438 19.707031 C 5.203125 19.972656 5.363281 20.246094 5.628906 20.320312 L 6.59375 20.578125 C 6.863281 20.648438 7.136719 20.492188 7.207031 20.222656 L 7.726562 18.292969 C 7.796875 18.027344 7.636719 17.75 7.371094 17.679688 Z M 6.40625 17.421875 "/>
<path style=" stroke:none;fill-rule:evenodd;fill:rgb(20%,20%,20%);fill-opacity:1;" d="M 7.917969 19.5 L 11.5 19.5 L 11.5 15.527344 C 10.066406 15.6875 8.832031 16.519531 8.128906 17.703125 C 8.003906 17.460938 7.78125 17.273438 7.5 17.199219 L 7.300781 17.144531 C 8.265625 15.558594 10.007812 14.5 12 14.5 C 13.992188 14.5 15.734375 15.558594 16.699219 17.144531 L 16.5 17.199219 C 16.21875 17.273438 15.996094 17.460938 15.871094 17.703125 C 15.167969 16.519531 13.933594 15.6875 12.5 15.527344 L 12.5 19.5 L 16.082031 19.5 L 16.308594 20.355469 C 16.324219 20.40625 16.339844 20.453125 16.359375 20.5 L 7.636719 20.5 C 7.660156 20.453125 7.675781 20.40625 7.691406 20.355469 Z M 7.546875 20.660156 C 7.339844 20.960938 6.980469 21.132812 6.609375 21.089844 C 6.726562 21.683594 6.941406 22.242188 7.234375 22.75 L 8.101562 22.25 C 7.824219 21.769531 7.632812 21.234375 7.546875 20.660156 Z M 15.898438 22.25 C 16.175781 21.769531 16.367188 21.234375 16.453125 20.664062 C 16.660156 20.964844 17.019531 21.132812 17.390625 21.089844 C 17.273438 21.683594 17.058594 22.242188 16.765625 22.75 Z M 15.898438 22.25 "/>
<path style=" stroke:none;fill-rule:evenodd;fill:rgb(20%,20%,20%);fill-opacity:1;" d="M 7.5 8.5 L 7.5 7 L 8.5 7 L 8.5 8.5 C 8.5 10.433594 10.066406 12 12 12 C 13.933594 12 15.5 10.433594 15.5 8.5 L 15.5 7 L 16.5 7 L 16.5 8.5 C 16.5 10.984375 14.484375 13 12 13 C 9.515625 13 7.5 10.984375 7.5 8.5 Z M 7.5 8.5 "/>
<path style=" stroke:none;fill-rule:evenodd;fill:rgb(20%,20%,20%);fill-opacity:1;" d="M 7.800781 3.125 C 7.546875 3.332031 7.5 3.476562 7.5 3.546875 C 7.5 4.269531 7.617188 4.832031 7.730469 5.210938 C 7.761719 5.324219 7.796875 5.421875 7.824219 5.5 L 16.175781 5.5 C 16.203125 5.421875 16.238281 5.324219 16.269531 5.210938 C 16.382812 4.832031 16.5 4.269531 16.5 3.546875 C 16.5 3.476562 16.453125 3.332031 16.199219 3.125 C 15.953125 2.925781 15.582031 2.730469 15.117188 2.558594 C 14.1875 2.210938 12.996094 2 12 2 C 11.003906 2 9.8125 2.210938 8.882812 2.558594 C 8.417969 2.730469 8.046875 2.925781 7.800781 3.125 Z M 15.851562 6.5 L 8.148438 6.5 C 8.183594 6.546875 8.222656 6.59375 8.273438 6.640625 C 8.652344 7.003906 9.613281 7.5 12 7.5 C 14.386719 7.5 15.347656 7.003906 15.726562 6.640625 C 15.777344 6.59375 15.816406 6.546875 15.851562 6.5 Z M 6.992188 6.101562 C 6.984375 6.082031 6.972656 6.058594 6.960938 6.03125 C 6.910156 5.90625 6.839844 5.726562 6.769531 5.496094 C 6.632812 5.039062 6.5 4.375 6.5 3.546875 C 6.5 3.039062 6.816406 2.636719 7.167969 2.351562 C 7.53125 2.054688 8.015625 1.8125 8.535156 1.621094 C 9.578125 1.230469 10.886719 1 12 1 C 13.113281 1 14.421875 1.230469 15.464844 1.621094 C 15.984375 1.8125 16.46875 2.054688 16.832031 2.351562 C 17.183594 2.636719 17.5 3.039062 17.5 3.546875 C 17.5 4.375 17.367188 5.039062 17.230469 5.496094 C 17.160156 5.726562 17.089844 5.90625 17.039062 6.03125 C 17.027344 6.058594 17.015625 6.082031 17.007812 6.101562 C 17.003906 6.1875 16.996094 6.296875 16.96875 6.421875 C 16.90625 6.699219 16.753906 7.035156 16.421875 7.359375 C 15.765625 7.996094 14.476562 8.5 12 8.5 C 9.523438 8.5 8.234375 7.996094 7.578125 7.359375 C 7.246094 7.035156 7.09375 6.699219 7.03125 6.421875 C 7.003906 6.296875 6.996094 6.1875 6.992188 6.101562 Z M 6.992188 6.101562 "/>
<path style=" stroke:none;fill-rule:nonzero;fill:rgb(20%,20%,20%);fill-opacity:1;" d="M 10 4 C 10 3.722656 10.222656 3.5 10.5 3.5 L 13.5 3.5 C 13.777344 3.5 14 3.722656 14 4 C 14 4.277344 13.777344 4.5 13.5 4.5 L 10.5 4.5 C 10.222656 4.5 10 4.277344 10 4 Z M 10 4 "/>
</g>
</svg>
