<?xml version="1.0" encoding="UTF-8"?>
<svg xmlns="http://www.w3.org/2000/svg" xmlns:xlink="http://www.w3.org/1999/xlink" width="24px" height="24px" viewBox="0 0 24 24" version="1.1">
<g id="surface1">
<path style=" stroke:none;fill-rule:nonzero;fill:rgb(0%,0%,0%);fill-opacity:1;" d="M 12 14 L 12 22 L 4 22 C 4 17.582031 7.582031 14 12 14 Z M 12 13 C 8.683594 13 6 10.316406 6 7 C 6 3.683594 8.683594 1 12 1 C 15.316406 1 18 3.683594 18 7 C 18 10.316406 15.316406 13 12 13 Z M 21 17 L 22 17 L 22 22 L 14 22 L 14 17 L 15 17 L 15 16 C 15 14.34375 16.34375 13 18 13 C 19.65625 13 21 14.34375 21 16 Z M 19 17 L 19 16 C 19 15.449219 18.550781 15 18 15 C 17.449219 15 17 15.449219 17 16 L 17 17 Z M 19 17 "/>
</g>
</svg>
