<svg id="Layer_1" data-name="Layer 1" xmlns="http://www.w3.org/2000/svg" viewBox="0 0 2837.3 2837.12"><defs><style>.cls-1{fill:#757575;}.cls-2{fill:#fefefe;}.cls-3{fill:#828282;}.cls-4{fill:#feffff;}.cls-5{fill:#fff;}</style></defs><g id="Layer_2" data-name="Layer 2"><g id="Layer_1-2" data-name="Layer 1-2"><path class="cls-1" d="M2479.09,478c2,2,4.19,3.89,6.07,6A1423.36,1423.36,0,0,1,2691,791.59a1405.1,1405.1,0,0,1,106.72,294q13.38,55.47,22.3,111.82,6.54,41.65,10.5,83.69c3.12,33.44,4.82,66.94,6.12,100.49,1.43,36.82.3,73.56-1.33,110.28-1.46,32.88-4.59,65.66-8.52,98.37a1394.17,1394.17,0,0,1-67.92,293.56,1408.65,1408.65,0,0,1-221.14,405.7q-25,32.16-51.94,62.84c-2.08,2.39-4.46,4.51-6.7,6.75-5.69-6-5-13.58-5-20.82-.17-37.73-.08-75.46-.08-113.19q0-133.34-.05-266.67c0-6,.87-12.12-.92-18.06-1.6-4,.29-7.49,1.89-10.95,19.83-43,38.45-86.35,53.69-131.22A1174.82,1174.82,0,0,0,2578,1597.42c6-39.47,9.72-79.15,12-119.05,2-34.84,2.47-69.69,1-104.39-5.57-135.88-33.24-267.27-84.17-393.52-8.24-20.43-16.76-40.78-26.68-60.51-3.41-6.77-7.31-13.59-6.8-21.69,1.29-6.68.52-13.4.53-20.09q.09-190.32.13-380.64C2474.13,490.73,2472.43,483.21,2479.09,478Z"/><path class="cls-1" d="M427.65,2432.13a56.54,56.54,0,0,1-4.4-3.6,1439,1439,0,0,1-112.94-125.34A1414.57,1414.57,0,0,1,34.18,1728.36q-12.45-55.68-20.42-112.16c-3.65-25.94-6.4-52-8.6-78.12a1393.55,1393.55,0,0,1-5-140.83q.84-48.9,4.91-97.67c2.56-30.59,6-61.07,10.5-91.4A1410.4,1410.4,0,0,1,236.53,635q25.17-38,52.89-74.16c1.14-1.5,2.55-2.78,3.84-4.17,4.88-2.48,7.22,0,8.29,4.44,1.14,4.7.77,9.54.77,14.32-.13,155.27.3,310.53-.21,465.79a21.68,21.68,0,0,0,.46,4.75c1.56,6.22-.51,12-2.32,17.81-19.63,62.71-34.42,126.52-43.29,191.64-4.28,31.34-7.09,62.82-9.17,94.42-2.66,40.29-2.58,80.62-1.06,120.79a1122.48,1122.48,0,0,0,26.43,201.28,1170.1,1170.1,0,0,0,105.22,288.5q23.52,45.1,51,88c2.88,4.47,6.93,8.69,4.81,14.86-1.7,6.27-1.34,12.68-1.35,19.05q0,165.76-.11,331.54C432.68,2420.2,434.83,2427.57,427.65,2432.13Z"/><path class="cls-1" d="M2473.61,1938.58c1.66.34,3.19,1.07,3.32,2.89.23,3.18.2,6.39.2,9.58q0,173,.09,346c0,20.68-1.69,41.45,1.92,62-2.35,4.25-5.93,7.49-9.13,11a1430.54,1430.54,0,0,1-369.87,292.58c-9.66,5.33-19.81,9.56-29.46,14.84-1.36.74-2.68,1.56-4,2.34-4.53-4.8-3.17-10.84-3.17-16.44q-.15-118-.05-236a204.49,204.49,0,0,0-.94-22c-.42-6.11,3.87-9,8.22-11.88,33.56-21.81,65.36-46,96.1-71.59a1196.33,1196.33,0,0,0,233.76-261.33c23.68-35.74,44.83-73,64.7-111C2467.41,1945.59,2468.24,1940.31,2473.61,1938.58Z"/><path class="cls-1" d="M2479.09,478c-1.77,5.2-2,10.56-2,16q.06,196.5,0,393c0,4.76.54,9.63-2.21,14-5.47-1.61-6.19-7-8.32-11-21.38-40.75-44-80.78-69.66-119a1245.63,1245.63,0,0,0-118-149.45c-60.63-66-128.47-123.26-202.07-174-4.25-2.93-8.64-5.68-9.14-11.59-1-20.42-.4-40.84-.43-61.25q-.15-97.59,0-195.2c0-6.72-1.62-14.5,6.89-18.19,3.29.42,5.86,2.45,8.64,3.93a1423.57,1423.57,0,0,1,307.24,220.45q44.31,41.75,84.93,87.08A52,52,0,0,1,2479.09,478Z"/><path class="cls-1" d="M2064.6,2401.15c2.52,9.7,1.89,19.6,1.89,29.46v236.83c0,4.15.09,8.31.15,12.46-3,1.74-6,3.62-9.07,5.19a1401.31,1401.31,0,0,1-270.12,103.63q-66.57,17.91-134.53,29.23c-25.18,4.19-50.47,7.47-75.77,10.73a27.06,27.06,0,0,1-3.82,0c-3.1-3-3-6.94-3-10.73-.06-75.29-.24-150.59.07-225.89a24,24,0,0,1,.39-3.78c1.08-6.69,6.44-7,11.56-7.68a1187.39,1187.39,0,0,0,129.57-25.75c94.87-24.31,184.87-60.73,270.75-107.62,24.4-13.32,48.17-27.65,71.5-42.74C2057.28,2402.44,2060.25,2399.47,2064.6,2401.15Z"/><path class="cls-1" d="M584.47,272.36c1.93-1.64,3.76-3.43,5.81-4.9A1417.37,1417.37,0,0,1,995.77,64.12c7-2.2,14.07-4,21.11-6,6,4.66,4.93,11.41,4.94,17.65q.12,99.06,0,198.1c0,11.16.46,22.33-.38,33.45-.68,7.06-6.27,9-11.7,11.07-34.7,13-68.6,27.9-102,44A1153.78,1153.78,0,0,0,685.54,502.9c-30.12,24.21-59.27,49.54-86.71,76.8-3.14,3.12-6.51,10.53-12.76,3.06-2.06-4.19-2.08-8.7-2.08-13.17-.16-96.87.13-193.74-.18-290.61C583.83,276.77,584.3,274.59,584.47,272.36Z"/><path class="cls-1" d="M2074.24,161.26c-3.38,3.81-4,8.31-4,13.28q.15,132.54.09,265.09c-4.36,1.73-7.32-1.3-10.41-3.31-74.2-48.3-152.64-88.3-235.8-118.91A1157.55,1157.55,0,0,0,1639.58,266c-5.43-1-11.84-.8-14.6-7.43-1.07-3.77-1-7.62-1-11.45V30.31c0-5-.73-10.34,3.06-14.64,6.49-.67,12.7,1.32,19,2.34a1409.79,1409.79,0,0,1,306.19,85.92q59.43,24.22,116.44,53.78C2070.61,158.73,2072.39,160.07,2074.24,161.26Z"/><path class="cls-1" d="M584.47,272.36a5.29,5.29,0,0,1,2.53,4.83V570.42c0,5.14.23,10.17,1.94,15.06,1,3.27-1.86,4.41-3.5,6.14C545.77,633.26,508.21,676.7,474.09,723A1176.8,1176.8,0,0,0,359.67,913.26a1158.21,1158.21,0,0,0-50.91,124c-1.41,4.09-1.73,9-6.55,11.12a4.79,4.79,0,0,1-2.9-4.55q-.09-4.78-.09-9.57V569.75c0-3.78-.1-7.57-.14-10.49-1.93-2.67-3.95-2.38-5.81-2.59,5.58-9.35,12.86-17.43,19.63-25.85a1422.59,1422.59,0,0,1,241.57-236.6q12.45-9.6,25.07-19A43.91,43.91,0,0,1,584.47,272.36Z"/><path class="cls-1" d="M427.65,2432.13a16.27,16.27,0,0,0,2.08-8.24c-.14-2.23,0-4.47,0-6.7V2074.31c0-3.19,0-6.39.18-9.57.12-2.37,1.92-3.06,3.91-3.42,4.17-.5,5.22,3,6.92,5.52A1174.31,1174.31,0,0,0,540,2195.74a1203.34,1203.34,0,0,0,107.37,106.4,1220.08,1220.08,0,0,0,123,94.28c4.62,3.1,8.91,6.33,9.33,12.55.91,29.38.33,58.74.39,88.09q.15,83.31-.05,166.6c0,6.52,1.2,13.65-5.19,18.5-2.33-1-4.72-1.94-7-3.11a1415.32,1415.32,0,0,1-288.72-198.42c-15.26-13.56-30.05-27.65-45-41.56C431.82,2436.92,429.8,2434.45,427.65,2432.13Z"/><path class="cls-1" d="M1573.28,2585q0,121.8.07,243.6c-16.12,2.3-32.36,3.34-48.58,4.68-35.68,3-71.42,3.91-107.19,3.81-17.25-.05-34.52,0-51.74-.7-25.19-1.07-50.37-2.53-75.49-4.9-19.7-1.86-39.38-3.94-59-6.47-25.31-3.27-50.48-7.45-75.58-12.08a36.55,36.55,0,0,1-4.57-1.41c-3.44-3.64-3-8.26-3-12.67q-.12-109.58,0-219.14c0-5.4-.18-10.94,3.82-15.39,3.53-2.71,7.34-1.42,11-.62a1207.17,1207.17,0,0,0,157.33,23.82c41.39,3.37,82.93,5.91,124.47,4.19,39.24-1.62,78.47-4,117.52-8.5C1566.14,2582.82,1570,2582.15,1573.28,2585Z"/><path class="cls-1" d="M1153.12,2564.61c-1.8,4.54-2,9.27-1.95,14.09q.06,116.43,0,232.87c-10.83-.87-21.33-3.68-31.88-6a1406.55,1406.55,0,0,1-337.9-119.64c-2.26-1.14-4.39-2.53-6.58-3.81,2.13-5.8,2.22-11.82,2.21-17.91q-.07-123.74,0-247.46c0-4.16.13-8.31.2-12.47,5.91-.46,10.34,3,14.83,5.91,85.56,54.77,177.06,96.82,273.77,127.65q37,11.8,74.79,20.8C1145.12,2559.74,1150.37,2559.66,1153.12,2564.61Z"/><path class="cls-1" d="M1019.15,312.23c-.12-4.46-.34-8.91-.34-13.37V72.22c0-4.81-.19-9.52-2-14.06,15.34-5.47,31.14-9.32,46.86-13.42q57.39-15,115.89-24.84c24.83-4.21,49.76-7.83,74.82-10.54C1275,7.14,1295.61,5,1316.31,3.58c11.46-.8,22.88-1.93,34.38-1.47,3.26,3.69,3.06,8.25,3.07,12.7q.08,108.53,0,217.07c0,3.51,0,7-1.27,10.37-3.47,5.9-9.49,5.87-15.17,6.22-90.41,5.61-178.73,22.38-265.19,49.29-14.34,4.47-28.76,8.7-42.86,13.93C1026,312.93,1022.65,314,1019.15,312.23Z"/><path class="cls-1" d="M1351.42,243.81V2.26c4.33-1.33,8.81-1.3,13.26-1.42,36-1,72-1.23,108,0q42.48,1.49,84.81,5.7c21.2,2.14,42.34,5,63.5,7.61a51.76,51.76,0,0,1,6.46,1.63V260.69c-3.69,3.29-7.92,1.61-11.87,1a1453.14,1453.14,0,0,0-159.78-15.6c-30-1.18-59.85.45-89.77.59C1361,246.73,1355.68,247.76,1351.42,243.81Z"/><path class="cls-2" d="M1350.76,243.94c12.75-.26,25.52-.29,38.26-.84,19.78-.86,39.54-1,59.31,0,6.7.33,13.4.5,20.1.68,24.56.69,49,2.95,73.45,5.37,21.58,2.14,43,5.21,64.47,8.38,6.92,1,13.82,2.19,20.73,3.29,18.09,3.84,36.21,7.52,54.25,11.54a1122.21,1122.21,0,0,1,168.85,52.32,1174.07,1174.07,0,0,1,212,110.11c2.64,1.73,5.46,3.22,8.19,4.82,8.56,6.11,17.1,12.26,25.69,18.33a1183.29,1183.29,0,0,1,362.67,412.62c5.36,10.14,10.8,20.25,16.2,30.37,2,4.68,3.91,9.41,6.1,14a1165.12,1165.12,0,0,1,87.64,258q10.35,48.27,16.38,97.3,5.34,43.8,7.79,87.83c2,35.16,2,70.32.79,105.47-.78,23-2.51,45.93-4.7,68.85a1164.63,1164.63,0,0,1-111.11,396.54c-1.52,3.15-2.8,6.41-4.2,9.62l-15.7,29.56a1185.2,1185.2,0,0,1-375.31,420.45c-6,4.15-12,8.37-18,12.56-14.35,8.89-28.58,18-43.06,26.66a1166.23,1166.23,0,0,1-330,134.71c-31,7.41-62.36,13.33-93.83,18.5-6.6,1.08-13.28,1.71-19.91,2.67a29.26,29.26,0,0,0-4.51,1.35c-9.2.83-18.42,1.48-27.6,2.55-14.89,1.73-29.82,2.9-44.78,4-35,2.48-70.11,3.92-105.21,2.85-27.73-.84-55.45-2-83.11-4.68-23.81-2.29-47.57-4.94-71.21-8.51q-42.54-6.43-84.5-16.07c-1.23-.29-2.5-.36-3.75-.53-14.5-3.8-29-7.5-43.49-11.42a1157.14,1157.14,0,0,1-284.92-120.1c-13.21-7.76-26.12-16-39.19-24-2.71-1.66-5.52-3.16-8.29-4.73-2.28-1.71-4.49-3.53-6.86-5.11a1186.55,1186.55,0,0,1-332.51-332.73c-1.22-1.83-2-4-4.08-5.2-.9-3.51-3.35-6.14-5.23-9.08A1169.79,1169.79,0,0,1,294.84,1764.5a1151.38,1151.38,0,0,1-36.33-154.74c-5.07-31.25-8.8-62.63-11.57-94.16-4.44-50.43-4.73-100.92-2.83-151.43,1-27.13,3.54-54.19,6.62-81.21a1171.31,1171.31,0,0,1,49.68-228.09c.69-2.12,1.21-4.3,1.8-6.46,5.93-16.17,11.66-32.41,17.8-48.5A1168.31,1168.31,0,0,1,488.87,699.66c22.1-28.57,45.66-55.88,70-82.55,6.62-7.27,12.46-15.26,19.72-22,3.47-3.21,6.91-6.45,10.36-9.67,1.7-1.42,3.51-2.72,5.08-4.26a1178.74,1178.74,0,0,1,418-266.12c2.38-.89,4.72-1.91,7.08-2.87,17.57-5.78,35.06-11.78,52.71-17.29a1135.09,1135.09,0,0,1,129.92-32.18c22-4.11,44-7.58,66.13-10.58,14.54-2,29.24-2.72,43.78-4.68C1324.68,245.74,1337.88,246.62,1350.76,243.94Z"/><path class="cls-3" d="M710.39,2168.78l28.84-28.85,29.17-29.18,28.49-28.49c9.72-9.72,19.48-19.41,29.16-29.18,9.41-9.51,19.15-18.72,28.15-28.52-4.79-6.36-44.89-46.66-52.6-52.87-8.3,7.24-15.8,15.45-23.7,23.23-8.2,8.08-16.29,16.27-24.43,24.41l-23.74,23.74L706,2066.82l-24.43,24.42q-11.85,11.85-23.63,23.63c-11.19-8.11-60.9-68.65-91.06-112.8C508.6,1916.74,463.74,1824.89,433,1726.21a1016.23,1016.23,0,0,1-46-277.84c1.52-2.07,3.5-1.91,5.4-1.92H586.25a5.36,5.36,0,0,0,2.55-4.87v-65.25a21.4,21.4,0,0,0-.63-3.56c-3.52-2.12-7.12-1.23-10.53-1.23q-71.47-.11-142.94,0H397.29c-2.81,0-5.76.67-8.39-.92C386.42,1355,395,1275.2,404,1228A1033.85,1033.85,0,0,1,533.9,886.72C570.35,826,642.22,732.11,669.36,710.08L697,737.69q13.92,13.89,27.86,27.76t27.81,27.82c9.28,9.27,18.51,18.58,27.83,27.8s18.26,18.69,27.8,27.47c6.25-4.47,46.43-44.38,52.58-52.1a3.39,3.39,0,0,0,0-.9,2.25,2.25,0,0,0-.5-.81c-.64-.72-1.29-1.42-1.95-2.11-1.12-1.14-2.26-2.27-3.39-3.4L726.75,661.1c-.45-.45-.9-.9-1.34-1.37-.23-.23-.44-.46-.65-.71a6.94,6.94,0,0,1-.6-.74c-.17-.27-.31-.56-.51-.94,0-3.34,3-4.64,5-6.46a1031.21,1031.21,0,0,1,375.3-216,1016.7,1016.7,0,0,1,146.12-35.22,875.12,875.12,0,0,1,87.54-10.39c14.35-.9,28.7-1.85,43.06-2.72,1.54-.1,3.19-.43,5.15,1.22,1.18,2.77.58,6.32.59,9.74q.06,84,0,167.91v12.47c0,1.59.07,3.21,1.4,4.46,7.53,1.15,64.31,1.2,72.5,0,2-2.84,1.26-6.15,1.27-9.27.07-17.59,0-35.18,0-52.77V398.46c0-3.43.25-6.86.38-10.11,13.3-2.3,67.62,2.47,103.54,7.71,121,17.66,235.51,55,343.17,113.11a1029.56,1029.56,0,0,1,213.69,153.46c-1.58,3.74-4.54,5.78-7,8.2q-62,62.16-124.05,124.24c-2.46,2.47-4.84,5-7.53,7.82,5.09,7,11.54,12.24,17.24,18.15,5.54,5.76,11.28,11.33,16.93,17L2036,856c3.5-1.88,5.62-4.71,8-7.11q62.07-62.05,124.11-124.18c2.45-2.45,5-4.8,7.72-7.4,3.65,1.73,5.59,4.77,7.88,7.29a1030.24,1030.24,0,0,1,241.33,459.29,988.27,988.27,0,0,1,18.43,103.76c3.38,27.3,5.84,54.66,7.1,82.13.16,3.46.8,7-.44,10.62-3.19,1.94-6.8,1-10.21,1q-72.9.11-145.81,0h-42.36c-2,1.41-2.37,2.6-2.37,3.92v67.15a15.16,15.16,0,0,0,.75,3.11c3.26,1.38,6.8.79,10.21.79q87.29.06,174.57,0h13.52c2.61,2,2.08,4,2.06,5.86-.19,16.31-1.61,32.56-3.12,48.79-1.24,13.36-2.77,26.69-4.38,40a968.52,968.52,0,0,1-19,105.56,1018.66,1018.66,0,0,1-86.76,235,1033.26,1033.26,0,0,1-159.09,227.08c-1.05,1.15-2.24,2.18-3.65,3.54-3.41-1.67-5.5-4.57-7.92-7q-64.78-64.76-129.51-129.58c-2.45-2.45-5-4.85-7.36-7.21-8.55,7-48.22,46.94-52.75,53.23l143.42,143.45c-18.06,22.14-102.39,87.19-157.27,121.31a1021.74,1021.74,0,0,1-303.8,126.74c-65.68,15.69-176.42,29.71-206.87,26.63-1.92-3.16-1-6.76-1-10.16q-.11-72.43,0-144.86v-41.25c0-2.82.48-5.74-.89-8.74-2.13-.46-4.53-1.78-6.7.87-15.73,19.26-45.11,18.38-61.78-.08-2.16-2.39-2.83-1.18-5.47-.09,0,8.41-.1,17-.12,25.56v127.77c0,8.31.07,16.63,0,24.94-.08,8.56.38,17.13-.28,25.54-16.25,2.44-94.9-6.06-146.93-15.52a999.59,999.59,0,0,1-142.66-37.16,1015.52,1015.52,0,0,1-135-57,1055.68,1055.68,0,0,1-126.37-76.16C781.33,2232.82,728.66,2188.3,710.39,2168.78Z"/><path class="cls-4" d="M1500.65,1650.7c-6.33-4.64-151.25-149-161.27-160.54-.31-2.3,1.55-3.34,2.79-4.72,1.07-1.18,2.24-2.27,3.37-3.4Q1587,1240.55,1828.41,999c11-11,23.17-20,37.45-26.23,63.89-27.69,140.77,6.08,157.51,79,9.05,39.43-1,74.71-28.34,104.79-1.93,2.13-4,4.1-6.07,6.14L1508.1,1643.63C1505.65,1646.08,1503.08,1648.4,1500.65,1650.7Z"/><path class="cls-5" d="M1425.9,1724.38a14.13,14.13,0,0,1-1.56,2.92c-52.72,53.06-105.47,106.09-157.52,158.41-3.54.49-4.57-1.36-5.92-2.61-1.64-1.52-3.17-3.15-4.76-4.73Q1037.77,1660,819.41,1441.58c-2-2-4.09-4-6.09-6.12-22-22.64-32.74-49.69-33-81.31-.32-45.47,28.78-94.52,83.17-109.3,41.74-11.34,79-1.61,110.87,27.87,2.58,2.39,5,5,7.48,7.44l436,436.11C1420.61,1719,1423.26,1721.69,1425.9,1724.38Z"/></g></g></svg>